<svg xmlns="http://www.w3.org/2000/svg" xmlns:xlink="http://www.w3.org/1999/xlink" width="40" height="40" fill="none" xmlns:v="https://vecta.io/nano"><path d="M36 0H4a4 4 0 0 0-4 4v32a4 4 0 0 0 4 4h32a4 4 0 0 0 4-4V4a4 4 0 0 0-4-4z" fill="url(#A)"/><path d="M20 14c-1.572.028-3.072.665-4.183 1.777s-1.748 2.612-1.775 4.184a5.81 5.81 0 0 0 3.627 5.481.24.24 0 0 0 .085.016h1.328c.062 0 .12-.025.165-.068s.068-.103.068-.165v-3.052c0-.062-.025-.12-.07-.165l-1.565-1.564a.69.69 0 0 1 .035-.937.69.69 0 0 1 .462-.2c.174-.006.343.054.475.168l1.182 1.182a.23.23 0 0 0 .076.051c.028.012.06.018.09.018s.06-.006.09-.018.054-.03.076-.05l1.182-1.182c.13-.12.303-.187.48-.184s.348.075.474.2a.69.69 0 0 1 .017.955l-1.563 1.563c-.044.044-.07.103-.07.165v3.052c0 .062.024.12.068.165s.103.068.165.068h1.328a.23.23 0 0 0 .084-.016 5.81 5.81 0 0 0 3.626-5.481c-.026-1.573-.662-3.074-1.774-4.187S21.573 14.028 20 14z" fill="url(#B)"/><path d="M19.084 10.416v1.75c0 .243.096.476.268.648s.405.268.648.268.476-.097.648-.268.268-.405.268-.648v-1.75c0-.243-.096-.476-.268-.648S20.243 9.5 20 9.5s-.476.097-.648.268-.268.405-.268.648z" fill="url(#C)"/><path d="M12.017 18.583h-2.1c-.243 0-.476.096-.648.268S9 19.257 9 19.5s.097.476.268.648.405.268.648.268h2.1c.243 0 .476-.096.648-.268s.268-.405.268-.648-.097-.476-.268-.648-.405-.268-.648-.268z" fill="url(#D)"/><path d="M14.686 13.8l-1.746-1.75c-.173-.168-.404-.26-.645-.258s-.47.098-.64.268-.267.4-.268.64.09.472.258.645l1.75 1.75c.175.156.403.24.637.232s.457-.103.622-.27.26-.39.267-.623-.077-.462-.234-.636z" fill="url(#E)"/><path d="M30.084 18.583h-2.1c-.243 0-.476.096-.648.268s-.268.405-.268.648.097.476.268.648.405.268.648.268h2.1c.243 0 .476-.096.648-.268S31 19.743 31 19.5s-.096-.476-.268-.648-.405-.268-.648-.268z" fill="url(#F)"/><path d="M28.356 12.06c-.172-.172-.405-.268-.648-.268s-.476.097-.648.268l-1.746 1.75c-.087.085-.157.186-.205.298s-.073.232-.074.353.022.242.068.355.114.215.2.3.188.154.3.2.233.07.355.068.242-.026.353-.074.213-.117.297-.205l1.75-1.75c.17-.172.267-.406.267-.65s-.098-.476-.27-.647z" fill="url(#G)"/><path d="M22.292 26.596H17.71c-.243 0-.476.096-.648.268s-.268.405-.268.648.096.476.268.648.405.268.648.268h4.583c.243 0 .476-.096.648-.268s.268-.405.268-.648-.097-.476-.268-.648-.405-.268-.648-.268z" fill="url(#H)"/><path d="M22.292 29.125H17.71c-.243 0-.476.097-.648.268s-.268.405-.268.648.096.476.268.648.405.268.648.268h1.165c.054 0 .106.018.148.052s.07.08.08.134c.042.207.155.393.318.526s.368.206.58.206.416-.073.58-.206.276-.32.32-.526c.01-.053.04-.1.08-.134s.094-.052.148-.052h1.165c.243 0 .476-.096.648-.268s.268-.405.268-.648-.097-.476-.268-.648-.405-.268-.648-.268z" fill="url(#I)"/><defs><linearGradient id="A" x1="20" y1="0" x2="20" y2="40" xlink:href="#J"><stop stop-color="#f2e6ff"/><stop offset="1" stop-color="#e5caff"/></linearGradient><linearGradient id="B" x1="20" y1="14.716" x2="20" y2="25.462" xlink:href="#J"><stop stop-color="#8622ea"/><stop offset="1" stop-color="#6b2cc2"/></linearGradient><linearGradient id="C" x1="20" y1="9.724" x2="20" y2="13.083" xlink:href="#J"><stop stop-color="#8622ea"/><stop offset="1" stop-color="#6b2cc2"/></linearGradient><linearGradient id="D" x1="10.967" y1="18.698" x2="10.967" y2="20.416" xlink:href="#J"><stop stop-color="#8622ea"/><stop offset="1" stop-color="#6b2cc2"/></linearGradient><linearGradient id="E" x1="13.153" y1="12.023" x2="13.153" y2="15.338" xlink:href="#J"><stop stop-color="#8622ea"/><stop offset="1" stop-color="#6b2cc2"/></linearGradient><linearGradient id="F" x1="29.033" y1="18.698" x2="29.033" y2="20.416" xlink:href="#J"><stop stop-color="#8622ea"/><stop offset="1" stop-color="#6b2cc2"/></linearGradient><linearGradient id="G" x1="26.831" y1="12.016" x2="26.831" y2="15.384" xlink:href="#J"><stop stop-color="#8622ea"/><stop offset="1" stop-color="#6b2cc2"/></linearGradient><linearGradient id="H" x1="20" y1="26.71" x2="20" y2="28.428" xlink:href="#J"><stop stop-color="#8622ea"/><stop offset="1" stop-color="#6b2cc2"/></linearGradient><linearGradient id="I" x1="20" y1="29.297" x2="20" y2="31.876" xlink:href="#J"><stop stop-color="#8622ea"/><stop offset="1" stop-color="#6b2cc2"/></linearGradient><linearGradient id="J" gradientUnits="userSpaceOnUse"/></defs></svg>