<svg xmlns="http://www.w3.org/2000/svg" width="40" height="40" fill="none" xmlns:v="https://vecta.io/nano"><path d="M36 0H4a4 4 0 0 0-4 4v32a4 4 0 0 0 4 4h32a4 4 0 0 0 4-4V4a4 4 0 0 0-4-4h0z" fill="url(#A)"/><path fill-rule="evenodd" d="M13.9 29.146A11 11 0 0 0 20 31a11.01 11.01 0 0 0 11-11 11 11 0 0 0-6.79-10.163 11 11 0 0 0-11.988 2.384A11 11 0 0 0 9.837 24.21a11 11 0 0 0 4.051 4.937l.002-.001zm4.9-11.605l3.78 1.512a4.29 4.29 0 0 1 2.003 1.634c.484.737.73 1.606.702 2.487a4.29 4.29 0 0 1-2.953 3.946.71.71 0 0 0-.488.675 1.83 1.83 0 0 1-.537 1.296 1.82 1.82 0 0 1-1.296.537c-.496 0-.953-.193-1.296-.537a1.82 1.82 0 0 1-.537-1.296.46.46 0 0 0-.458-.458h-.458a1.83 1.83 0 0 1-1.296-.537 1.82 1.82 0 0 1-.537-1.296c0-.496.193-.953.537-1.296a1.82 1.82 0 0 1 1.296-.537h3.727c.145-.001.286-.052.398-.144s.188-.22.215-.364.005-.3-.065-.418-.18-.227-.316-.282l-3.78-1.512a4.29 4.29 0 0 1-2.704-4.121 4.29 4.29 0 0 1 2.953-3.946.71.71 0 0 0 .488-.675 1.83 1.83 0 0 1 .537-1.296c.344-.344.8-.537 1.296-.537s.953.193 1.296.537a1.82 1.82 0 0 1 .537 1.296.46.46 0 0 0 .458.458h.458a1.83 1.83 0 0 1 1.296.537 1.82 1.82 0 0 1 .537 1.296c0 .496-.193.953-.537 1.296a1.82 1.82 0 0 1-1.296.537h-3.727a.63.63 0 0 0-.398.144.62.62 0 0 0-.215.364c-.027.144-.005.3.065.418s.18.227.316.282H18.8z" fill="url(#B)"/><defs><linearGradient id="A" x1="20" y1="0" x2="20" y2="40" gradientUnits="userSpaceOnUse"><stop stop-color="#f2e6ff"/><stop offset="1" stop-color="#e5ccff"/></linearGradient><linearGradient id="B" x1="20" y1="15.463" x2="20" y2="31" gradientUnits="userSpaceOnUse"><stop stop-color="#8a13ff"/><stop offset="1" stop-color="#692dbe"/></linearGradient></defs></svg>