<svg xmlns="http://www.w3.org/2000/svg" xmlns:xlink="http://www.w3.org/1999/xlink" width="40" height="40" fill="none" xmlns:v="https://vecta.io/nano"><path d="M36 0H4a4 4 0 0 0-4 4v32a4 4 0 0 0 4 4h32a4 4 0 0 0 4-4V4a4 4 0 0 0-4-4z" fill="#f2e6ff"/><path d="M28.878 27.86c.078.087.12.2.122.32v3.32c-.002.07-.018.136-.046.2s-.067.12-.116.165a.5.5 0 0 1-.169.106c-.062.023-.13.034-.195.03h-16.95c-.066.003-.132-.007-.195-.03s-.12-.06-.168-.106a.52.52 0 0 1-.116-.165c-.028-.062-.043-.13-.046-.198v-3.32a.48.48 0 0 1 .122-.319l2.346-2.682c.05-.057.113-.102.182-.133a.53.53 0 0 1 .218-.047h12.26a.53.53 0 0 1 .218.047c.07.03.13.076.182.133l2.35 2.68z" fill="#7c19dd" stroke="#7c19dd" stroke-width="1.3" stroke-linejoin="round"/><path fill-rule="evenodd" d="M7.35 28a.65.65 0 0 1 .65-.65h23a.65.65 0 0 1 0 1.3H8a.65.65 0 0 1-.65-.65z" fill="#f2e6ff"/><g stroke-width="1.3" stroke-linejoin="round" stroke="#7629d1"><path d="M19.5 22.033V25.1m2.83-7.315c.217.3.498.524.822.68a2.18 2.18 0 0 0 1.036.215c1.14 0 2.063-.708 2.063-1.58s-.924-1.58-2.063-1.58-2.062-.708-2.062-1.582.924-1.58 2.062-1.58a2.18 2.18 0 0 1 1.036.215 2.23 2.23 0 0 1 .822.68m-1.858 5.427v1.054m0-8.434v1.054" stroke-linecap="round"/><path d="M29 9H10c-.552 0-1 .458-1 1.022v10.99c0 .565.448 1.022 1 1.022h19c.552 0 1-.458 1-1.022v-10.99C30 9.458 29.552 9 29 9z"/></g><g fill="#7c19dd" stroke-width=".5"><use xlink:href="#B" stroke="#7629d1"/><use xlink:href="#B" y="4" stroke="#7629d1"/><use xlink:href="#B" x="-4" y="4" stroke="#7629d1"/><use xlink:href="#B" x="-4" stroke="#7629d1"/></g><defs ><path id="B" d="M15 14.333v-1.667c0-.368.3-.667.667-.667h1.667c.368 0 .667.3.667.667v1.667c0 .368-.3.667-.667.667h-1.667c-.368 0-.667-.3-.667-.667z"/></defs></svg>