<svg xmlns="http://www.w3.org/2000/svg" width="40" height="40" fill="none" xmlns:v="https://vecta.io/nano"><g clip-path="url(#C)"><path d="M36 0H4a4 4 0 0 0-4 4v32a4 4 0 0 0 4 4h32a4 4 0 0 0 4-4V4a4 4 0 0 0-4-4z" fill="url(#A)"/><g stroke-width="1.33"><path d="M10.182 12H25.3c.1 0 .182.08.182.182v13.403c0 2.264 1.132 2.836 2.264 2.836H11.818A1.82 1.82 0 0 1 10 26.603v-14.42c0-.1.08-.182.182-.182z" fill="url(#B)" stroke="url(#B)"/><path d="M25.472 15.773h4.347c.1 0 .182.08.182.182v9.63c0 2.264-.755 2.837-2.264 2.837" stroke="#7629d1"/><g stroke="#f2e6ff"><path d="M23.28 14.62c0-.126-.102-.227-.227-.227h-3.465c-.126 0-.227.102-.227.227v5.32c0 .126.102.227.227.227h3.465c.125 0 .227-.102.227-.227v-5.32z" fill="#f2e6ff"/><g stroke-linecap="round"><path d="M16.792 14.264H11.5m5.282 3.02H11.5m5.282 3.02H11.5m11.698 3.018H11.5m11.698 3.02H11.5"/></g></g></g></g><defs><linearGradient id="A" x1="20" y1="0" x2="20" y2="40" gradientUnits="userSpaceOnUse"><stop stop-color="#f2e6ff"/><stop offset="1" stop-color="#e5caff"/></linearGradient><linearGradient id="B" x1="18.916" y1="13.026" x2="18.916" y2="28.421" gradientUnits="userSpaceOnUse"><stop stop-color="#8622ea"/><stop offset="1" stop-color="#6b2cc2"/></linearGradient><clipPath id="C"><path fill="#fff" d="M0 0h40v40H0z"/></clipPath></defs></svg>