<svg xmlns="http://www.w3.org/2000/svg" width="40" height="40" fill="none" xmlns:v="https://vecta.io/nano"><g clip-path="url(#D)"><path d="M36 0H4a4 4 0 0 0-4 4v32a4 4 0 0 0 4 4h32a4 4 0 0 0 4-4V4a4 4 0 0 0-4-4z" fill="url(#A)"/><path d="M30 11H14V28H30V11Z" fill="#f2e6ff"/><path d="M28.77 11H15.23A1.23 1.23 0 0 0 14 12.231v13.54A1.23 1.23 0 0 0 15.231 27H28.77A1.23 1.23 0 0 0 30 25.769V12.23A1.23 1.23 0 0 0 28.769 11z" fill="url(#B)" stroke="url(#B)" stroke-width="1.655" stroke-linejoin="round"/><path d="M20 13.227c0-.125-.1-.227-.222-.227h-3.555c-.123 0-.222.102-.222.227v4.546c0 .125.1.227.222.227h3.555c.123 0 .222-.102.222-.227v-4.546z" fill="#f2e6ff" stroke="#f2e6ff" stroke-width="1.241"/><g stroke-linejoin="round" stroke-linecap="round"><path d="M27 30H12.23A1.23 1.23 0 0 1 11 28.769V14" stroke="url(#C)" stroke-width="1.655"/><g stroke="#f2e6ff" stroke-width="1.5"><path d="M23 18h5.668m-12.432 6.236H28.38M22.713 14.3h5.668m-12.145 6.617H28.38"/></g></g><g fill="#7c19dd"><path d="M17.855 15.473c.537 0 .972-.444.972-.993s-.435-.993-.972-.993-.972.444-.972.993.435.993.972.993zm-1.62 1.937a1.67 1.67 0 0 1 .474-1.17 1.6 1.6 0 0 1 2.29 0c.304.3.474.73.474 1.17"/></g></g><defs><linearGradient id="A" x1="20" y1="0" x2="20" y2="40" gradientUnits="userSpaceOnUse"><stop stop-color="#f2e6ff"/><stop offset="1" stop-color="#e5caff"/></linearGradient><linearGradient id="B" x1="22" y1="12" x2="22" y2="27" gradientUnits="userSpaceOnUse"><stop stop-color="#8622ea"/><stop offset="1" stop-color="#6b2cc2"/></linearGradient><linearGradient id="C" x1="19" y1="15" x2="19" y2="30" gradientUnits="userSpaceOnUse"><stop stop-color="#8622ea"/><stop offset="1" stop-color="#6b2cc2"/></linearGradient><clipPath id="D"><path fill="#fff" d="M0 0h40v40H0z"/></clipPath></defs></svg>