<svg xmlns="http://www.w3.org/2000/svg" width="40" height="40" fill="none" xmlns:v="https://vecta.io/nano"><path d="M36 0H4a4 4 0 0 0-4 4v32a4 4 0 0 0 4 4h32a4 4 0 0 0 4-4V4a4 4 0 0 0-4-4z" fill="url(#A)"/><path d="M11.59 16.197H8v8.607h3.59c2.4 0 4.2-1.87 4.2-4.303s-1.82-4.303-4.2-4.303zm0 6.22h-.99v-3.836h.99c1.003 0 1.734.775 1.734 1.918s-.73 1.918-1.734 1.918zM20.954 25c1.622 0 3.046-.824 3.802-2.102l-2.155-1.23c-.285.566-.904.922-1.647.922-1.226 0-2.056-.898-2.056-2.1s.83-2.1 2.056-2.1c.73 0 1.362.357 1.647.9l2.155-1.23C24 16.824 22.576 16 20.954 16c-2.625 0-4.532 1.955-4.532 4.5S18.33 25 20.954 25zm7.665 0c2.056 0 3.38-.984 3.38-2.754 0-1.795-1.35-2.31-2.712-2.705-.99-.283-1.412-.418-1.412-.8 0-.246.198-.455.656-.455s.93.258 1.19.9l2.056-1.193C31.22 16.676 29.957 16 28.52 16c-1.895 0-3.12 1.18-3.12 2.73 0 1.574 1.152 2.336 2.588 2.766.88.258 1.535.332 1.535.775 0 .258-.248.443-.842.443-.73 0-1.25-.32-1.56-1.094l-2.118 1.217c.42 1.29 1.684 2.164 3.616 2.164z" fill="url(#B)"/><defs><linearGradient id="A" x1="20" y1="0" x2="20" y2="40" gradientUnits="userSpaceOnUse"><stop stop-color="#f2e6ff"/><stop offset="1" stop-color="#e5caff"/></linearGradient><linearGradient id="B" x1="19.764" y1="13.469" x2="19.764" y2="27.877" gradientUnits="userSpaceOnUse"><stop stop-color="#8622ea"/><stop offset="1" stop-color="#6b2cc2"/></linearGradient></defs></svg>