<svg xmlns="http://www.w3.org/2000/svg" width="40" height="40" fill="none" xmlns:v="https://vecta.io/nano"><path d="M36 0H4a4 4 0 0 0-4 4v32a4 4 0 0 0 4 4h32a4 4 0 0 0 4-4V4a4 4 0 0 0-4-4z" fill="url(#A)"/><g clip-path="url(#E)" fill-rule="evenodd"><path d="M20.465 20.932c-2.06 0-3.733-1.666-3.733-3.72s1.67-3.72 3.733-3.72 3.733 1.666 3.733 3.72-1.67 3.72-3.733 3.72zm4.766-9.45c.253-.265.46-.58.647-.967.36-.75.445-1.64.215-2.504V8.01l-7.37 1.964C15.44 10.756 13 13.7 13 17.21c0 4.1 3.342 7.442 7.465 7.442s7.465-3.332 7.465-7.442c0-2.304-1.05-4.363-2.7-5.728z" fill="url(#B)"/><path d="M26.092 8.012V8.01l-6.876 1.83c-.437.105-1.428.357-2.103.735-1.608.982-2.682 2.75-2.682 4.77 0 2.966 2.315 5.39 5.24 5.577l.19-.01.098-.016c-1.822-.246-3.227-1.802-3.227-3.686 0-1.83 1.323-3.348 3.067-3.66l3.93-1.136c1.083-.42 1.687-.934 2.148-1.898.36-.75.445-1.64.214-2.504z" fill="url(#C)"/><path d="M23.632 25.437l-7.276 1.943c-2.01.537-3.204 2.587-2.668 4.58l10.914-2.914c2.01-.537 3.204-2.587 2.668-4.58l-3.638.97z" fill="url(#D)"/></g><defs><linearGradient id="A" x1="20" y1="0" x2="20" y2="40" gradientUnits="userSpaceOnUse"><stop stop-color="#f2e6ff"/><stop offset="1" stop-color="#e5caff"/></linearGradient><linearGradient id="B" x1="18.163" y1="22.785" x2="26.661" y2="12.378" gradientUnits="userSpaceOnUse"><stop stop-color="#861eec"/><stop offset="1" stop-color="#47018c"/></linearGradient><linearGradient id="C" x1="20.314" y1="11.189" x2="15.527" y2="19.132" gradientUnits="userSpaceOnUse"><stop stop-color="#861eec"/><stop offset="1" stop-color="#47018c"/></linearGradient><linearGradient id="D" x1="14.913" y1="29.686" x2="22.654" y2="22.463" gradientUnits="userSpaceOnUse"><stop stop-color="#8922ee"/><stop offset="1" stop-color="#692dbe"/></linearGradient><clipPath id="E"><path fill="#fff" transform="translate(13 8)" d="M0 0h14.96v24H0z"/></clipPath></defs></svg>