<svg xmlns="http://www.w3.org/2000/svg" width="40" height="40" fill="none" xmlns:v="https://vecta.io/nano"><path d="M36 0H4a4 4 0 0 0-4 4v32a4 4 0 0 0 4 4h32a4 4 0 0 0 4-4V4a4 4 0 0 0-4-4h0z" fill="url(#A)"/><path fill-rule="evenodd" d="M22.02 20.952a.27.27 0 0 0 .115.092l-.002.001a5.37 5.37 0 0 1 3.296 4.972.54.54 0 0 1-.152.396.52.52 0 0 1-.178.123.54.54 0 0 1-.212.043h-9.773a.54.54 0 0 1-.391-.166.56.56 0 0 1-.116-.183.54.54 0 0 1-.036-.214c-.003-1.06.307-2.1.893-2.984a5.38 5.38 0 0 1 2.398-1.988.27.27 0 0 0 .115-.092c.03-.042.047-.1.05-.14s-.007-.1-.03-.144a.27.27 0 0 0-.101-.107 4.08 4.08 0 0 1-1.682-1.983c-.33-.827-.38-1.74-.14-2.597s.752-1.614 1.46-2.152 1.574-.83 2.464-.83a4.07 4.07 0 0 1 3.924 2.982c.238.857.19 1.77-.14 2.597S22.86 20.1 22.1 20.56c-.042.025-.077.063-.1.107s-.034.094-.03.144a.27.27 0 0 0 .05.14zm-3.135-1.695a2.44 2.44 0 0 0 1.113.267v.002a2.45 2.45 0 0 0 1.662-.65c.452-.418.73-.99.778-1.605a.27.27 0 0 0-.091-.225.27.27 0 0 0-.11-.059c-.04-.01-.085-.013-.125-.003a5.45 5.45 0 0 1-1.028.098 5.38 5.38 0 0 1-2.996-.908c-.036-.023-.075-.037-.116-.043s-.083-.001-.123.012-.075.036-.105.065-.052.065-.065.105a2.44 2.44 0 0 0 .337 2.199 2.44 2.44 0 0 0 .869.745zm9.258 1.343c1.5 0 2.715-1.215 2.715-2.715s-1.216-2.715-2.715-2.715-2.715 1.215-2.715 2.715 1.215 2.715 2.715 2.715zM13.76 22.736c.037-.07.06-.145.064-.223a.54.54 0 0 0-.163-.424c-.056-.055-.123-.097-.197-.123a4.9 4.9 0 0 0-2.146-.245c-.726.08-1.422.32-2.042.704s-1.145.902-1.54 1.515S7.09 25.247 7 25.97a.53.53 0 0 0 .02.228.54.54 0 0 0 .113.2c.05.058.115.104.185.135s.147.047.225.047h4.85a.54.54 0 0 0 .384-.16c.102-.103.16-.24.16-.384-.002-1.152.28-2.286.822-3.303v.003zm13.457 3.688a.54.54 0 0 1-.16-.384 7.05 7.05 0 0 0-.818-3.304c-.037-.07-.06-.146-.063-.224a.53.53 0 0 1 .036-.23c.03-.073.074-.138.13-.193s.124-.096.198-.122a4.89 4.89 0 0 1 2.145-.243c.724.08 1.42.32 2.04.705s1.144.9 1.537 1.515.645 1.307.735 2.03a.54.54 0 0 1-.133.428c-.05.057-.115.105-.185.135a.54.54 0 0 1-.225.047H27.6c-.144 0-.28-.058-.384-.16zM11.853 20.6c1.5 0 2.715-1.215 2.715-2.715s-1.216-2.715-2.715-2.715-2.715 1.215-2.715 2.715 1.215 2.715 2.715 2.715z" fill="url(#B)"/><defs><linearGradient id="A" x1="800" y1="0" x2="800" y2="1600" gradientUnits="userSpaceOnUse"><stop stop-color="#f2e6ff"/><stop offset="1" stop-color="#e5ccff"/></linearGradient><linearGradient id="B" x1="19.999" y1="16.99" x2="19.999" y2="26.584" gradientUnits="userSpaceOnUse"><stop stop-color="#8a13ff"/><stop offset="1" stop-color="#692dbe"/></linearGradient></defs></svg>