<svg xmlns="http://www.w3.org/2000/svg" width="40" height="40" fill="none" xmlns:v="https://vecta.io/nano"><path d="M36 0H4a4 4 0 0 0-4 4v32a4 4 0 0 0 4 4h32a4 4 0 0 0 4-4V4a4 4 0 0 0-4-4z" fill="url(#A)"/><path d="M28.333 12.516h-1.47l.167-1.132c.017-.175-.002-.35-.056-.518a1.26 1.26 0 0 0-.26-.451 1.25 1.25 0 0 0-.419-.306c-.16-.07-.332-.11-.506-.11H14.21a1.24 1.24 0 0 0-.507.108 1.25 1.25 0 0 0-.42.306c-.12.136-.2.296-.264.47a1.29 1.29 0 0 0-.048.537l.167 1.1h-1.472a1.66 1.66 0 0 0-.639.128c-.202.085-.386.21-.54.365a1.68 1.68 0 0 0-.361.546c-.084.204-.126.423-.126.643V16.7a4.23 4.23 0 0 0 .564 2.104c.368.64.897 1.17 1.534 1.538a.83.83 0 0 0 .633.081.83.83 0 0 0 .291-.146.84.84 0 0 0 .214-.247c.054-.096.09-.2.103-.31s.006-.22-.023-.327-.078-.206-.145-.293-.15-.16-.245-.215c-.382-.22-.7-.54-.92-.922s-.338-.82-.34-1.262v-2.516h1.718l.527 3.53C14.057 18.695 15.293 23 20 23s5.942-4.303 6.088-5.276l.526-3.53h1.72V16.7c-.001.443-.118.88-.34 1.262s-.54.702-.92.922c-.095.055-.178.128-.245.215a.84.84 0 0 0-.145.293c-.03.106-.036.217-.023.327s.05.215.103.31.127.18.214.247a.83.83 0 0 0 .924.065c.637-.368 1.166-.9 1.534-1.538A4.23 4.23 0 0 0 30 16.71v-2.516c0-.445-.176-.872-.488-1.186a1.66 1.66 0 0 0-1.178-.491zm-5.768 6.1c.035.085.043.18.023.27a.44.44 0 0 1-.137.231c-.07.06-.155.098-.246.107s-.183-.01-.262-.057l-1.833-1.04c-.03-.018-.067-.027-.102-.027s-.07.01-.102.027l-1.833 1.04c-.08.046-.17.066-.262.057s-.177-.046-.246-.107a.44.44 0 0 1-.137-.231c-.02-.1-.012-.184.023-.27l.744-1.72a.21.21 0 0 0-.044-.233l-1.347-1.332a.41.41 0 0 1-.128-.213c-.02-.083-.014-.17.018-.25a.41.41 0 0 1 .158-.192c.07-.046.155-.07.24-.065h1.534c.04 0 .08-.01.112-.033s.06-.052.076-.09l.802-1.736c.037-.073.093-.133.163-.176a.44.44 0 0 1 .46 0c.07.043.125.103.163.176l.8 1.736a.21.21 0 0 0 .077.089c.034.02.072.033.112.033h1.533c.084-.004.167.02.238.065a.41.41 0 0 1 .157.191c.03.08.038.165.02.248a.41.41 0 0 1-.127.213l-1.344 1.334c-.03.03-.05.068-.06.1a.21.21 0 0 0 .014.124l.744 1.72z" fill="url(#B)"/><path d="M18.958 24.002c-.03-.004-.062-.002-.09.007s-.057.024-.08.044a.21.21 0 0 0-.055.072c-.013.027-.02.057-.02.087v2.06C15.836 26.626 14 28.12 14 29.154a.84.84 0 0 0 .251.598c.16.16.38.248.606.248h10.286c.227 0 .445-.09.606-.248a.84.84 0 0 0 .251-.598c0-1.033-1.836-2.528-4.714-2.883v-2.06c0-.03-.007-.06-.02-.087s-.03-.052-.054-.072-.05-.035-.08-.044-.06-.01-.09-.007a7.34 7.34 0 0 1-2.085 0h.002z" fill="url(#C)"/><defs><linearGradient id="A" x1="20" y1="0" x2="20" y2="40" gradientUnits="userSpaceOnUse"><stop stop-color="#f2e6ff"/><stop offset="1" stop-color="#e5caff"/></linearGradient><linearGradient id="B" x1="20" y1="10.813" x2="20" y2="23" gradientUnits="userSpaceOnUse"><stop stop-color="#8622ea"/><stop offset="1" stop-color="#6b2cc2"/></linearGradient><linearGradient id="C" x1="20" y1="24.375" x2="20" y2="30" gradientUnits="userSpaceOnUse"><stop stop-color="#8622ea"/><stop offset="1" stop-color="#6b2cc2"/></linearGradient></defs></svg>