<svg xmlns="http://www.w3.org/2000/svg" width="40" height="40" fill="none" xmlns:v="https://vecta.io/nano"><path d="M36 0H4a4 4 0 0 0-4 4v32a4 4 0 0 0 4 4h32a4 4 0 0 0 4-4V4a4 4 0 0 0-4-4z" fill="#f2e6ff"/><g stroke="#7629d1" stroke-width="1.5"><path d="M10 31h21m-21-3.067h21M11.5 17.2v7.667m3-7.667v7.667M19 17.2v7.667m3-7.667v7.667m4.5-7.667v7.667m3-7.667v7.667" stroke-linecap="round" stroke-linejoin="round"/><path d="M31 14.134H10l9.69-5.9c.242-.16.523-.243.81-.243s.57.084.81.243l9.69 5.9z" fill="#7629d1" stroke-linejoin="round"/></g></svg>