<svg xmlns="http://www.w3.org/2000/svg" xmlns:xlink="http://www.w3.org/1999/xlink" width="40" height="40" fill="none" xmlns:v="https://vecta.io/nano"><style><![CDATA[.B{fill:#7c19dd}.C{stroke:#7629d1}.D{stroke-width:1.5}.E{stroke-linejoin:round}.F{stroke-linecap:round}]]></style><path d="M36 0H4a4 4 0 0 0-4 4v32a4 4 0 0 0 4 4h32a4 4 0 0 0 4-4V4a4 4 0 0 0-4-4z" fill="#f2e6ff"/><g class="B"><use xlink:href="#B" class="C D E"/><use xlink:href="#C"/></g><g class="C D E"><use xlink:href="#C" class="F"/><use xlink:href="#B" x="-12.308" class="B"/></g><use xlink:href="#D" class="B"/><g class="C D E"><use xlink:href="#D" class="F"/><path d="M28.462 18A8.46 8.46 0 0 0 20 9.539 8.46 8.46 0 0 0 11.539 18h16.923z" class="B"/><path d="M20 18v7.692m0-16.154V8" class="F"/></g><defs ><path id="B" d="M26.154 25.692a2.31 2.31 0 0 0 2.308-2.308 2.31 2.31 0 0 0-2.308-2.308 2.31 2.31 0 0 0-2.308 2.308 2.31 2.31 0 0 0 2.308 2.308z"/><path id="C" d="M22.308 31.077c0-1.02.405-1.998 1.127-2.72s1.7-1.126 2.72-1.126 1.998.405 2.72 1.127S30 30.057 30 31.077"/><path id="D" d="M10 31.077c0-1.02.405-1.998 1.127-2.72s1.7-1.126 2.72-1.126 1.998.405 2.72 1.127 1.127 1.7 1.127 2.72"/></defs></svg>