<svg xmlns="http://www.w3.org/2000/svg" width="40" height="40" fill="none" xmlns:v="https://vecta.io/nano"><path d="M36 0H4a4 4 0 0 0-4 4v32a4 4 0 0 0 4 4h32a4 4 0 0 0 4-4V4a4 4 0 0 0-4-4z" fill="#f2e6ff"/><g stroke-width="1.5" stroke-linejoin="round"><path d="M23.76 30H10.78c-.112 0-.223-.023-.325-.068a.78.78 0 0 1-.265-.192c-.073-.082-.127-.178-.158-.28s-.04-.213-.022-.32L16.102 15H27l-2.47 14.14c.017.107.01.216-.022.32a.74.74 0 0 1-.158.281.78.78 0 0 1-.265.192c-.102.045-.213.068-.325.068z" fill="#7c19dd" stroke="#7c19dd"/><g stroke="#e9d7fc" stroke-linecap="round"><path d="M21 19.53l-1.792-.488c-.275-.076-.566-.047-.823.082s-.464.35-.585.625-.15.587-.08.88.234.554.463.733l1.632 1.28c.227.18.388.44.457.732a1.39 1.39 0 0 1-.08.876c-.12.273-.326.494-.58.623s-.544.16-.818.087L17 24.474"/><path d="M20 19.472L20.38 18m-2.73 8.675l.38-1.472"/></g><path d="M10.533 18.6h-.767a.77.77 0 0 1-.542-.223C9.08 18.235 9 18.042 9 17.84v-6.08c0-.202.08-.395.225-.537A.77.77 0 0 1 9.767 11h21.467a.77.77 0 0 1 .542.223c.144.143.224.336.224.537v6.08c0 .202-.08.395-.224.537a.77.77 0 0 1-.542.223h-2.3" stroke="#7629d1" stroke-linecap="round"/></g></svg>