<svg xmlns="http://www.w3.org/2000/svg" width="40" height="40" fill="none" xmlns:v="https://vecta.io/nano"><path d="M36 0H4a4 4 0 0 0-4 4v32a4 4 0 0 0 4 4h32a4 4 0 0 0 4-4V4a4 4 0 0 0-4-4z" fill="url(#A)"/><path d="M19.716 22.665a1.09 1.09 0 0 0 1.567 0l8.587-8.87c.058-.06.1-.136.118-.218s.015-.17-.01-.25a.46.46 0 0 0-.136-.207c-.063-.055-.14-.1-.22-.102s-.17-.02-.254-.02h-17.73a1.69 1.69 0 0 0-.256.019c-.08.012-.158.048-.22.102s-.1.126-.136.207a.47.47 0 0 0-.01.25.46.46 0 0 0 .118.218l8.585 8.87z" fill="url(#B)"/><path d="M30.902 15.012c-.03-.012-.062-.015-.093-.01a.16.16 0 0 0-.082.042l-5.425 5.246c-.04.04-.064.094-.064.15s.023.1.064.15l4.413 4.267c.063.058.113.13.147.206s.053.16.053.245-.016.168-.05.246a.63.63 0 0 1-.143.208.66.66 0 0 1-.215.139c-.08.032-.167.048-.254.047s-.173-.018-.253-.05-.152-.082-.213-.142l-4.413-4.267a.22.22 0 0 0-.071-.046c-.027-.01-.055-.016-.084-.016s-.057.005-.084.016a.22.22 0 0 0-.071.046l-1.863 1.8a2.45 2.45 0 0 1-3.402 0l-1.864-1.8c-.04-.04-.097-.062-.155-.062s-.114.022-.155.062l-4.413 4.267a.67.67 0 0 1-.462.178c-.172-.001-.337-.068-.458-.186s-.19-.277-.192-.443.065-.327.184-.446l4.413-4.267a.21.21 0 0 0 .064-.15.21.21 0 0 0-.064-.15l-5.425-5.246a.16.16 0 0 0-.082-.043c-.03-.006-.064-.003-.093.01s-.053.03-.07.056-.027.054-.027.084v10.153c0 .45.184.88.513 1.197A1.78 1.78 0 0 0 11.75 27h17.5a1.78 1.78 0 0 0 1.237-.496c.328-.317.513-.748.513-1.197V15.154a.15.15 0 0 0-.027-.086c-.018-.025-.042-.045-.07-.057z" fill="url(#C)"/><defs><linearGradient id="A" x1="20" y1="0" x2="20" y2="40" gradientUnits="userSpaceOnUse"><stop stop-color="#f2e6ff"/><stop offset="1" stop-color="#e5caff"/></linearGradient><linearGradient id="B" x1="20.5" y1="13.625" x2="20.5" y2="23" gradientUnits="userSpaceOnUse"><stop stop-color="#8622ea"/><stop offset="1" stop-color="#6b2cc2"/></linearGradient><linearGradient id="C" x1="20.5" y1="15.75" x2="20.5" y2="27" gradientUnits="userSpaceOnUse"><stop stop-color="#8622ea"/><stop offset="1" stop-color="#6b2cc2"/></linearGradient></defs></svg>