<svg xmlns="http://www.w3.org/2000/svg" xmlns:xlink="http://www.w3.org/1999/xlink" width="40" height="40" fill="none" xmlns:v="https://vecta.io/nano"><style><![CDATA[.B{stroke-width:1.5}.C{stroke-linecap:round}.D{stroke-linejoin:round}.E{stroke:#7629d1}]]></style><path d="M36 0H4a4 4 0 0 0-4 4v32a4 4 0 0 0 4 4h32a4 4 0 0 0 4-4V4a4 4 0 0 0-4-4z" fill="#f2e6ff"/><path d="M21 28.6V24" class="B C D E"/><use xlink:href="#B" fill="#7c19dd"/><use xlink:href="#B" class="B C D E"/><use xlink:href="#C" fill="#7c19dd"/><g class="B C D E"><use xlink:href="#C"/><path d="M21.273 26.378a4.01 4.01 0 0 1-1.72-.42c-.534-.266-1.003-.646-1.37-1.114m3.1 1.534a4.01 4.01 0 0 0 1.72-.42c.534-.266 1.003-.646 1.37-1.114"/></g><path d="M23.38 13.704h-3.16c-.693 0-1.053.204-1.053 1.046 0 1.367 4.214 2.815 4.214 4.182a.91.91 0 0 1-.037.424.92.92 0 0 1-.225.362.93.93 0 0 1-.792.26h-3.16m2.106-6.273v-1.568m0 9.408v-1.568" stroke="#edddfe" class="B C D"/><defs ><path id="B" d="M18.182 32l-.805-2.394c-.026-.077-.033-.16-.02-.24a.51.51 0 0 1 .091-.222c.048-.066.11-.12.183-.156s.153-.056.235-.056h6.812c.082 0 .162.02.235.056s.136.1.183.156a.51.51 0 0 1 .071.461L24.364 32"/><path id="C" d="M26.995 25.803a2.58 2.58 0 0 0 1.442-.898c.364-.453.563-1.015.563-1.594 0-1.252-1.546-2.555-3.09-2.508.995-1.54 1.53-3.33 1.545-5.158 0 0 .58-6.644-6.382-6.644s-5.982 6.644-5.982 6.644c-.018 1.045.157 2.084.515 3.067-2.06 0-3.606 1.022-3.606 3.067 0 2.286 1.1 4.026 3.09 4.026"/></defs></svg>