<svg width="40" height="40" viewBox="0 0 40 40" fill="none" xmlns="http://www.w3.org/2000/svg">
<path d="M36 0H4C1.79086 0 0 1.79086 0 4V36C0 38.2091 1.79086 40 4 40H36C38.2091 40 40 38.2091 40 36V4C40 1.79086 38.2091 0 36 0Z" fill="url(#paint0_linear)"/>
<path d="M19.9992 30.0001C28.4626 30.0001 29.373 28.3274 29.373 27.6081C29.373 27.0906 29.373 25.8781 23.8037 25.3776C23.5974 25.3591 23.3923 25.4249 23.2336 25.5607C23.0749 25.6966 22.9755 25.8911 22.9574 26.1017C22.9393 26.3123 23.0038 26.5216 23.1369 26.6836C23.2699 26.8456 23.4606 26.947 23.6669 26.9655C24.6703 27.0431 25.6671 27.1934 26.6497 27.4152C26.6926 27.4254 26.7308 27.4502 26.7582 27.4854C26.7856 27.5207 26.8005 27.5643 26.8005 27.6093C26.8005 27.6543 26.7856 27.698 26.7582 27.7332C26.7308 27.7685 26.6926 27.7932 26.6497 27.8035C24.4607 28.2494 22.2308 28.4513 19.9992 28.4057C17.768 28.4513 15.5387 28.2493 13.3503 27.8035C13.3074 27.7932 13.2691 27.7685 13.2417 27.7332C13.2143 27.698 13.1994 27.6543 13.1994 27.6093C13.1994 27.5643 13.2143 27.5207 13.2417 27.4854C13.2691 27.4502 13.3074 27.4254 13.3503 27.4152C14.3224 27.1956 15.3086 27.0464 16.3014 26.9687C16.5077 26.9501 16.6983 26.8486 16.8313 26.6865C16.9643 26.5245 17.0287 26.3151 17.0105 26.1045C16.9922 25.894 16.8928 25.6994 16.734 25.5637C16.5752 25.428 16.3701 25.3622 16.1638 25.3808C10.627 25.8829 10.627 27.0923 10.627 27.6081C10.6254 29.7668 17.1809 30.0001 19.9992 30.0001Z" fill="white"/>
<path d="M21.0053 15.9774C20.9676 15.9641 20.9347 15.9394 20.9109 15.9067C20.8872 15.874 20.8737 15.8347 20.8722 15.794C20.8708 15.7533 20.8814 15.7131 20.9028 15.6787C20.9241 15.6443 20.9552 15.6173 20.9918 15.6012C21.5305 15.3674 21.9736 14.9508 22.2459 14.422C22.5182 13.8931 22.6031 13.2844 22.4863 12.699C22.3694 12.1136 22.0579 11.5873 21.6045 11.2094C21.1511 10.8314 20.5837 10.625 19.9984 10.625C19.413 10.625 18.8456 10.8314 18.3922 11.2094C17.9388 11.5873 17.6273 12.1136 17.5105 12.699C17.3936 13.2844 17.4785 13.8931 17.7508 14.422C18.0232 14.9508 18.4662 15.3674 19.0049 15.6012C19.0416 15.6173 19.0726 15.6443 19.0939 15.6787C19.1153 15.7131 19.1259 15.7533 19.1245 15.794C19.123 15.8347 19.1095 15.874 19.0858 15.9067C19.0621 15.9394 19.0292 15.9641 18.9915 15.9774C18.3743 16.1927 17.8384 16.5995 17.4588 17.1408C17.0792 17.6821 16.8747 18.3309 16.874 18.9966V21.3886C16.874 21.4942 16.9151 21.5954 16.9882 21.6701C17.0614 21.7447 17.1606 21.7866 17.264 21.7866H17.9616C18.0107 21.7865 18.0581 21.8053 18.0941 21.8393C18.1302 21.8733 18.1524 21.9199 18.1562 21.9699L18.4378 25.4081C18.4459 25.5077 18.4905 25.6005 18.5626 25.6681C18.6347 25.7357 18.729 25.7732 18.8269 25.773H21.1698C21.2677 25.7732 21.3621 25.7357 21.4342 25.6681C21.5063 25.6005 21.5508 25.5077 21.5589 25.4081L21.8405 21.9699C21.8443 21.9199 21.8665 21.8733 21.9026 21.8393C21.9387 21.8053 21.986 21.7865 22.0351 21.7866H22.7327C22.8362 21.7866 22.9354 21.7447 23.0085 21.6701C23.0816 21.5954 23.1227 21.4942 23.1227 21.3886V18.9966C23.122 18.3309 22.9175 17.6821 22.5379 17.1408C22.1583 16.5995 21.6224 16.1927 21.0053 15.9774V15.9774Z" fill="white"/>
<path d="M14.2872 16.77C14.2505 16.7563 14.2187 16.7319 14.1956 16.6997C14.1724 16.6676 14.1591 16.6293 14.1573 16.5895C14.1554 16.5497 14.1651 16.5102 14.1851 16.476C14.2051 16.4417 14.2346 16.4143 14.2698 16.3971C14.7126 16.1858 15.0716 15.8268 15.2875 15.3792C15.5034 14.9316 15.5633 14.4222 15.4573 13.9352C15.3513 13.4482 15.0857 13.0126 14.7045 12.7005C14.3232 12.3883 13.849 12.2181 13.3602 12.2181C12.8714 12.2181 12.3972 12.3883 12.0159 12.7005C11.6346 13.0126 11.369 13.4482 11.263 13.9352C11.157 14.4222 11.2169 14.9316 11.4328 15.3792C11.6487 15.8268 12.0077 16.1858 12.4506 16.3971C12.4858 16.4142 12.5153 16.4416 12.5354 16.4758C12.5555 16.5099 12.5652 16.5494 12.5635 16.5892C12.5617 16.629 12.5484 16.6674 12.5254 16.6995C12.5024 16.7317 12.4706 16.7562 12.434 16.77C11.9049 16.965 11.4474 17.3215 11.1238 17.791C10.8002 18.2606 10.626 18.8204 10.625 19.3945V20.5918C10.625 20.6441 10.6351 20.6959 10.6548 20.7442C10.6744 20.7926 10.7032 20.8365 10.7395 20.8735C10.7758 20.9104 10.8189 20.9397 10.8663 20.9597C10.9137 20.9796 10.9645 20.9898 11.0157 20.9897H11.6635C11.7115 20.99 11.7578 21.0083 11.7935 21.041C11.8292 21.0737 11.8519 21.1187 11.8573 21.1673L12.1895 24.2237C12.201 24.321 12.2468 24.4106 12.3182 24.4759C12.3897 24.5413 12.482 24.5779 12.5779 24.5789H14.1401C14.2362 24.579 14.3289 24.5428 14.4006 24.4774C14.4722 24.4121 14.5177 24.322 14.5284 24.2245L14.8614 21.1673C14.8667 21.1186 14.8894 21.0735 14.9251 21.0408C14.9609 21.008 15.0072 20.9898 15.0552 20.9897H15.7022C15.7535 20.9898 15.8043 20.9796 15.8517 20.9597C15.8991 20.9397 15.9422 20.9104 15.9785 20.8735C16.0148 20.8365 16.0436 20.7926 16.0632 20.7442C16.0829 20.6959 16.093 20.6441 16.093 20.5918V19.3937C16.0924 18.8201 15.9188 18.2605 15.5957 17.7911C15.2726 17.3217 14.8157 16.9652 14.2872 16.77Z" fill="white"/>
<path d="M27.5663 16.77C27.5296 16.7562 27.4978 16.7317 27.4748 16.6995C27.4518 16.6674 27.4385 16.629 27.4368 16.5892C27.435 16.5494 27.4448 16.5099 27.4648 16.4758C27.4849 16.4416 27.5144 16.4142 27.5496 16.3971C27.9925 16.1858 28.3515 15.8268 28.5674 15.3792C28.7833 14.9316 28.8432 14.4222 28.7372 13.9352C28.6312 13.4482 28.3656 13.0126 27.9843 12.7005C27.603 12.3883 27.1288 12.2181 26.64 12.2181C26.1512 12.2181 25.677 12.3883 25.2957 12.7005C24.9145 13.0126 24.6489 13.4482 24.5429 13.9352C24.4369 14.4222 24.4968 14.9316 24.7127 15.3792C24.9286 15.8268 25.2876 16.1858 25.7304 16.3971C25.7657 16.4142 25.7952 16.4416 25.8152 16.4758C25.8353 16.5099 25.8451 16.5494 25.8433 16.5892C25.8415 16.629 25.8283 16.6674 25.8053 16.6995C25.7822 16.7317 25.7504 16.7562 25.7138 16.77C25.1851 16.9652 24.728 17.3218 24.4048 17.7914C24.0816 18.2609 23.9078 18.8207 23.9072 19.3945V20.5918C23.9072 20.6441 23.9173 20.6959 23.937 20.7442C23.9566 20.7926 23.9854 20.8365 24.0217 20.8735C24.058 20.9104 24.1011 20.9397 24.1485 20.9597C24.1959 20.9796 24.2467 20.9898 24.298 20.9897H24.945C24.9931 20.9898 25.0395 21.008 25.0754 21.0407C25.1113 21.0735 25.1341 21.1185 25.1396 21.1673L25.4718 24.2237C25.4833 24.321 25.529 24.4106 25.6005 24.4759C25.6719 24.5413 25.7642 24.5779 25.8601 24.5789H27.4223C27.5184 24.579 27.6112 24.5428 27.6828 24.4774C27.7544 24.4121 27.8 24.322 27.8107 24.2245L28.1437 21.1673C28.1489 21.1186 28.1716 21.0735 28.2073 21.0408C28.2431 21.008 28.2894 20.9898 28.3375 20.9897H28.9845C29.0357 20.9898 29.0865 20.9796 29.1339 20.9597C29.1813 20.9397 29.2244 20.9104 29.2607 20.8735C29.297 20.8365 29.3258 20.7926 29.3455 20.7442C29.3651 20.6959 29.3752 20.6441 29.3752 20.5918V19.3937C29.3744 18.8197 29.2003 18.2599 28.8766 17.7904C28.5529 17.3209 28.0954 16.9647 27.5663 16.77V16.77Z" fill="white"/>
<path d="M19.9992 30.0001C28.4626 30.0001 29.373 28.3274 29.373 27.6081C29.373 27.0906 29.373 25.8781 23.8037 25.3776C23.5974 25.3591 23.3923 25.4249 23.2336 25.5607C23.0749 25.6966 22.9755 25.8911 22.9574 26.1017C22.9393 26.3123 23.0038 26.5216 23.1369 26.6836C23.2699 26.8456 23.4606 26.947 23.6669 26.9655C24.6703 27.0431 25.6671 27.1934 26.6497 27.4152C26.6926 27.4254 26.7308 27.4502 26.7582 27.4854C26.7856 27.5207 26.8005 27.5643 26.8005 27.6093C26.8005 27.6543 26.7856 27.698 26.7582 27.7332C26.7308 27.7685 26.6926 27.7932 26.6497 27.8035C24.4607 28.2494 22.2308 28.4513 19.9992 28.4057C17.768 28.4513 15.5387 28.2493 13.3503 27.8035C13.3074 27.7932 13.2691 27.7685 13.2417 27.7332C13.2143 27.698 13.1994 27.6543 13.1994 27.6093C13.1994 27.5643 13.2143 27.5207 13.2417 27.4854C13.2691 27.4502 13.3074 27.4254 13.3503 27.4152C14.3224 27.1956 15.3086 27.0464 16.3014 26.9687C16.5077 26.9501 16.6983 26.8486 16.8313 26.6865C16.9643 26.5245 17.0287 26.3151 17.0105 26.1045C16.9922 25.894 16.8928 25.6994 16.734 25.5637C16.5752 25.428 16.3701 25.3622 16.1638 25.3808C10.627 25.8829 10.627 27.0923 10.627 27.6081C10.6254 29.7668 17.1809 30.0001 19.9992 30.0001Z" fill="white"/>
<path d="M21.0053 15.9774C20.9676 15.9641 20.9347 15.9394 20.9109 15.9067C20.8872 15.874 20.8737 15.8347 20.8722 15.794C20.8708 15.7533 20.8814 15.7131 20.9028 15.6787C20.9241 15.6443 20.9552 15.6173 20.9918 15.6012C21.5305 15.3674 21.9736 14.9508 22.2459 14.422C22.5182 13.8931 22.6031 13.2844 22.4863 12.699C22.3694 12.1136 22.0579 11.5873 21.6045 11.2094C21.1511 10.8314 20.5837 10.625 19.9984 10.625C19.413 10.625 18.8456 10.8314 18.3922 11.2094C17.9388 11.5873 17.6273 12.1136 17.5105 12.699C17.3936 13.2844 17.4785 13.8931 17.7508 14.422C18.0232 14.9508 18.4662 15.3674 19.0049 15.6012C19.0416 15.6173 19.0726 15.6443 19.0939 15.6787C19.1153 15.7131 19.1259 15.7533 19.1245 15.794C19.123 15.8347 19.1095 15.874 19.0858 15.9067C19.0621 15.9394 19.0292 15.9641 18.9915 15.9774C18.3743 16.1927 17.8384 16.5995 17.4588 17.1408C17.0792 17.6821 16.8747 18.3309 16.874 18.9966V21.3886C16.874 21.4942 16.9151 21.5954 16.9882 21.6701C17.0614 21.7447 17.1606 21.7866 17.264 21.7866H17.9616C18.0107 21.7865 18.0581 21.8053 18.0941 21.8393C18.1302 21.8733 18.1524 21.9199 18.1562 21.9699L18.4378 25.4081C18.4459 25.5077 18.4905 25.6005 18.5626 25.6681C18.6347 25.7357 18.729 25.7732 18.8269 25.773H21.1698C21.2677 25.7732 21.3621 25.7357 21.4342 25.6681C21.5063 25.6005 21.5508 25.5077 21.5589 25.4081L21.8405 21.9699C21.8443 21.9199 21.8665 21.8733 21.9026 21.8393C21.9387 21.8053 21.986 21.7865 22.0351 21.7866H22.7327C22.8362 21.7866 22.9354 21.7447 23.0085 21.6701C23.0816 21.5954 23.1227 21.4942 23.1227 21.3886V18.9966C23.122 18.3309 22.9175 17.6821 22.5379 17.1408C22.1583 16.5995 21.6224 16.1927 21.0053 15.9774V15.9774Z" fill="white"/>
<path d="M14.2872 16.77C14.2505 16.7563 14.2187 16.7319 14.1956 16.6997C14.1724 16.6676 14.1591 16.6293 14.1573 16.5895C14.1554 16.5497 14.1651 16.5102 14.1851 16.476C14.2051 16.4417 14.2346 16.4143 14.2698 16.3971C14.7126 16.1858 15.0716 15.8268 15.2875 15.3792C15.5034 14.9316 15.5633 14.4222 15.4573 13.9352C15.3513 13.4482 15.0857 13.0126 14.7045 12.7005C14.3232 12.3883 13.849 12.2181 13.3602 12.2181C12.8714 12.2181 12.3972 12.3883 12.0159 12.7005C11.6346 13.0126 11.369 13.4482 11.263 13.9352C11.157 14.4222 11.2169 14.9316 11.4328 15.3792C11.6487 15.8268 12.0077 16.1858 12.4506 16.3971C12.4858 16.4142 12.5153 16.4416 12.5354 16.4758C12.5555 16.5099 12.5652 16.5494 12.5635 16.5892C12.5617 16.629 12.5484 16.6674 12.5254 16.6995C12.5024 16.7317 12.4706 16.7562 12.434 16.77C11.9049 16.965 11.4474 17.3215 11.1238 17.791C10.8002 18.2606 10.626 18.8204 10.625 19.3945V20.5918C10.625 20.6441 10.6351 20.6959 10.6548 20.7442C10.6744 20.7926 10.7032 20.8365 10.7395 20.8735C10.7758 20.9104 10.8189 20.9397 10.8663 20.9597C10.9137 20.9796 10.9645 20.9898 11.0157 20.9897H11.6635C11.7115 20.99 11.7578 21.0083 11.7935 21.041C11.8292 21.0737 11.8519 21.1187 11.8573 21.1673L12.1895 24.2237C12.201 24.321 12.2468 24.4106 12.3182 24.4759C12.3897 24.5413 12.482 24.5779 12.5779 24.5789H14.1401C14.2362 24.579 14.3289 24.5428 14.4006 24.4774C14.4722 24.4121 14.5177 24.322 14.5284 24.2245L14.8614 21.1673C14.8667 21.1186 14.8894 21.0735 14.9251 21.0408C14.9609 21.008 15.0072 20.9898 15.0552 20.9897H15.7022C15.7535 20.9898 15.8043 20.9796 15.8517 20.9597C15.8991 20.9397 15.9422 20.9104 15.9785 20.8735C16.0148 20.8365 16.0436 20.7926 16.0632 20.7442C16.0829 20.6959 16.093 20.6441 16.093 20.5918V19.3937C16.0924 18.8201 15.9188 18.2605 15.5957 17.7911C15.2726 17.3217 14.8157 16.9652 14.2872 16.77Z" fill="white"/>
<path d="M27.5663 16.77C27.5296 16.7562 27.4978 16.7317 27.4748 16.6995C27.4518 16.6674 27.4385 16.629 27.4368 16.5892C27.435 16.5494 27.4448 16.5099 27.4648 16.4758C27.4849 16.4416 27.5144 16.4142 27.5496 16.3971C27.9925 16.1858 28.3515 15.8268 28.5674 15.3792C28.7833 14.9316 28.8432 14.4222 28.7372 13.9352C28.6312 13.4482 28.3656 13.0126 27.9843 12.7005C27.603 12.3883 27.1288 12.2181 26.64 12.2181C26.1512 12.2181 25.677 12.3883 25.2957 12.7005C24.9145 13.0126 24.6489 13.4482 24.5429 13.9352C24.4369 14.4222 24.4968 14.9316 24.7127 15.3792C24.9286 15.8268 25.2876 16.1858 25.7304 16.3971C25.7657 16.4142 25.7952 16.4416 25.8152 16.4758C25.8353 16.5099 25.8451 16.5494 25.8433 16.5892C25.8415 16.629 25.8283 16.6674 25.8053 16.6995C25.7822 16.7317 25.7504 16.7562 25.7138 16.77C25.1851 16.9652 24.728 17.3218 24.4048 17.7914C24.0816 18.2609 23.9078 18.8207 23.9072 19.3945V20.5918C23.9072 20.6441 23.9173 20.6959 23.937 20.7442C23.9566 20.7926 23.9854 20.8365 24.0217 20.8735C24.058 20.9104 24.1011 20.9397 24.1485 20.9597C24.1959 20.9796 24.2467 20.9898 24.298 20.9897H24.945C24.9931 20.9898 25.0395 21.008 25.0754 21.0407C25.1113 21.0735 25.1341 21.1185 25.1396 21.1673L25.4718 24.2237C25.4833 24.321 25.529 24.4106 25.6005 24.4759C25.6719 24.5413 25.7642 24.5779 25.8601 24.5789H27.4223C27.5184 24.579 27.6112 24.5428 27.6828 24.4774C27.7544 24.4121 27.8 24.322 27.8107 24.2245L28.1437 21.1673C28.1489 21.1186 28.1716 21.0735 28.2073 21.0408C28.2431 21.008 28.2894 20.9898 28.3375 20.9897H28.9845C29.0357 20.9898 29.0865 20.9796 29.1339 20.9597C29.1813 20.9397 29.2244 20.9104 29.2607 20.8735C29.297 20.8365 29.3258 20.7926 29.3455 20.7442C29.3651 20.6959 29.3752 20.6441 29.3752 20.5918V19.3937C29.3744 18.8197 29.2003 18.2599 28.8766 17.7904C28.5529 17.3209 28.0954 16.9647 27.5663 16.77V16.77Z" fill="white"/>
<defs>
<linearGradient id="paint0_linear" x1="20" y1="4.0625" x2="20" y2="40" gradientUnits="userSpaceOnUse">
<stop stop-color="#FFAE8D"/>
<stop offset="1" stop-color="#EF6C43"/>
</linearGradient>
</defs>
</svg>
