<svg width="40" height="40" fill="none" xmlns="http://www.w3.org/2000/svg"><g clip-path="url(#clip0_908_883)" fill-rule="evenodd" clip-rule="evenodd"><path d="M0 3a3 3 0 013-3h34a3 3 0 013 3v34a3 3 0 01-3 3H3a3 3 0 01-3-3V3z" fill="url(#paint0_linear_908_883)"/><path d="M28.454 12.724l-4.578 6.643-.742-2.766c-.27.097-.577.189-.923.283l-.131.035-5.677 1.511-4.752 1.268c-.693-2.573.828-5.22 3.405-5.952l.08-.022L21.898 12l-.737-2.745 7.293 3.47zm-16.97 16.123l4.577-6.644.742 2.767c.27-.096.577-.19.923-.284l.13-.035 5.678-1.51 4.752-1.268c.693 2.573-.829 5.219-3.405 5.951l-.08.022-6.762 1.725.737 2.745-7.293-3.47z" fill="#fff"/></g><defs><linearGradient id="paint0_linear_908_883" x1="36.25" y1="48.438" x2="38.509" y2="0" gradientUnits="userSpaceOnUse"><stop stop-color="#00932A"/><stop offset="1" stop-color="#0EFB52"/></linearGradient><clipPath id="clip0_908_883"><path fill="#fff" d="M0 0h40v40H0z"/></clipPath></defs></svg>