<svg width="40" height="40" fill="none" xmlns="http://www.w3.org/2000/svg"><path fill-rule="evenodd" clip-rule="evenodd" d="M0 4a4 4 0 014-4h32a4 4 0 014 4v32a4 4 0 01-4 4H4a4 4 0 01-4-4V4z" fill="url(#paint0_linear_676_20)"/><path fill-rule="evenodd" clip-rule="evenodd" d="M19.78 15.227L13.683 11 10.5 17.735l2.64-.714 1.55 6.076a4.255 4.255 0 005.185 3.005l-2.799-10.145 2.703-.73zm9.936 3.543l-5.715-3.963-2.984 6.314 2.325-.628 1.51 5.82a4.256 4.256 0 005.186 3.004l-1.108-4.085-1.32-4.878c-.097-.357-.19-.668-.29-.937l2.396-.647z" fill="#fff"/><defs><linearGradient id="paint0_linear_676_20" x1="7.883" y1="13.365" x2="7.883" y2="37.6" gradientUnits="userSpaceOnUse"><stop stop-color="#A143FF"/><stop offset="1" stop-color="#692DBE"/></linearGradient></defs></svg>