<svg width="40" height="40" fill="none" xmlns="http://www.w3.org/2000/svg"><rect x="4" y="4.4" width="31.6" height="34.8" rx="12.8" fill="#9C918E"/><path fill-rule="evenodd" clip-rule="evenodd" d="M0 4a4 4 0 014-4h32a4 4 0 014 4v32a4 4 0 01-4 4H4a4 4 0 01-4-4V4z" fill="url(#paint0_linear_676_10)"/><g filter="url(#filter0_d_676_10)"><path fill-rule="evenodd" clip-rule="evenodd" d="M24.853 20.694c.382-4.371-2.862-8.226-7.246-8.61-4.384-.383-8.248 2.85-8.63 7.221-.383 4.372 2.861 8.227 7.245 8.61 4.384.384 8.248-2.85 8.63-7.22zm-3.992-.405a4.006 4.006 0 00-3.648-4.335 4.006 4.006 0 00-4.346 3.636 4.006 4.006 0 003.649 4.335 4.006 4.006 0 004.345-3.636zm6.027 1.578l-.681-2.858-.694-3.98c2.165-.387 4.23 1.082 4.613 3.28l.681 2.858.693 3.98c-2.164.387-4.23-1.081-4.612-3.28z" fill="#fff"/></g><defs><linearGradient id="paint0_linear_676_10" x1="1.835" y1="1.387" x2="1.835" y2="37.716" gradientUnits="userSpaceOnUse"><stop stop-color="#FFBE0B"/><stop offset="1" stop-color="#FB5607"/></linearGradient><filter id="filter0_d_676_10" x="5.946" y="10.054" width="28.554" height="21.892" filterUnits="userSpaceOnUse" color-interpolation-filters="sRGB"><feFlood flood-opacity="0" result="BackgroundImageFix"/><feColorMatrix in="SourceAlpha" values="0 0 0 0 0 0 0 0 0 0 0 0 0 0 0 0 0 0 127 0" result="hardAlpha"/><feOffset dy="1"/><feGaussianBlur stdDeviation="1.5"/><feColorMatrix values="0 0 0 0 0 0 0 0 0 0 0 0 0 0 0 0 0 0 0.0777287 0"/><feBlend in2="BackgroundImageFix" result="effect1_dropShadow_676_10"/><feBlend in="SourceGraphic" in2="effect1_dropShadow_676_10" result="shape"/></filter></defs></svg>