<svg width="80" height="81" viewBox="0 0 80 81" fill="none" xmlns="http://www.w3.org/2000/svg">
<rect y="0.820801" width="80" height="80" rx="10.8475" fill="url(#paint0_linear_297_271)"/>
<path d="M27 28.8208C18.485 28.8208 14 35.3858 14 41.8208C14 48.2558 18.485 54.8208 27 54.8208C32.135 54.8208 36.23 51.1808 40 46.8908C43.77 51.1808 47.735 54.8208 53 54.8208C61.515 54.8208 66 48.2558 66 41.8208C66 35.3858 61.515 28.8208 53 28.8208C47.735 28.8208 43.77 32.4608 40 36.7508C36.23 32.4608 32.135 28.8208 27 28.8208ZM27 35.3208C29.73 35.3208 32.72 38.3758 35.71 41.8208C32.72 45.2658 29.73 48.3208 27 48.3208C22.19 48.3208 20.5 44.8108 20.5 41.8208C20.5 38.8308 22.19 35.3208 27 35.3208ZM53 35.3208C57.81 35.3208 59.5 38.8308 59.5 41.8208C59.5 44.8108 57.81 48.3208 53 48.3208C50.205 48.3208 47.215 45.2658 44.29 41.8208C47.28 38.3758 50.205 35.3208 53 35.3208Z" fill="white"/>
<defs>
<linearGradient id="paint0_linear_297_271" x1="21.5" y1="-30" x2="16" y2="81" gradientUnits="userSpaceOnUse">
<stop stop-color="#2D70EB"/>
<stop offset="1" stop-color="#7C19DD"/>
<stop offset="1" stop-color="#6A1ECE"/>
</linearGradient>
</defs>
</svg>
